<svg width="24" height="24" viewBox="0 0 24 24" fill="none" xmlns="http://www.w3.org/2000/svg">
<path d="M3.29289 16.9577C3.10536 17.1452 3 17.3995 3 17.6648V20.0005C3 20.5528 3.44772 21.0005 4 21.0005H6.33579C6.601 21.0005 6.85536 20.8952 7.04289 20.7077L17.1029 10.6477C17.4934 10.2571 17.4934 9.62396 17.1029 9.23344L14.7671 6.89765C14.3766 6.50713 13.7434 6.50713 13.3529 6.89765L3.29289 16.9577ZM20.71 7.04055C21.1 6.65055 21.1 6.02055 20.71 5.63055L18.37 3.29055C17.98 2.90055 17.35 2.90055 16.96 3.29055L15.8371 4.41344C15.4466 4.80396 15.4466 5.43713 15.8371 5.82765L18.1729 8.16344C18.5634 8.55396 19.1966 8.55396 19.5871 8.16344L20.71 7.04055Z" fill="#4B4E6D"/>
</svg>
