<svg width="61" height="61" viewBox="0 0 61 61" fill="none" xmlns="http://www.w3.org/2000/svg">
<path d="M30.5002 0.0830078C13.7102 0.0830078 0.0834961 13.7097 0.0834961 30.4997C0.0834961 47.2897 13.7102 60.9163 30.5002 60.9163C47.2902 60.9163 60.9168 47.2897 60.9168 30.4997C60.9168 13.7097 47.2902 0.0830078 30.5002 0.0830078ZM45.7085 32.5413C45.7085 33.0936 45.2608 33.5413 44.7085 33.5413H34.5418C33.9895 33.5413 33.5418 33.9891 33.5418 34.5413V44.708C33.5418 45.2603 33.0941 45.708 32.5418 45.708H28.4585C27.9062 45.708 27.4585 45.2603 27.4585 44.708V34.5413C27.4585 33.9891 27.0108 33.5413 26.4585 33.5413H16.2918C15.7395 33.5413 15.2918 33.0936 15.2918 32.5413V28.458C15.2918 27.9057 15.7395 27.458 16.2918 27.458H26.4585C27.0108 27.458 27.4585 27.0103 27.4585 26.458V16.2913C27.4585 15.7391 27.9062 15.2913 28.4585 15.2913H32.5418C33.0941 15.2913 33.5418 15.7391 33.5418 16.2913V26.458C33.5418 27.0103 33.9895 27.458 34.5418 27.458H44.7085C45.2608 27.458 45.7085 27.9057 45.7085 28.458V32.5413Z" fill="#A1E887"/>
</svg>
