<svg width="42" height="41" viewBox="0 0 42 41" fill="none" xmlns="http://www.w3.org/2000/svg">
<path fill-rule="evenodd" clip-rule="evenodd" d="M21 41C32.598 41 42 31.8218 42 20.5C42 9.17816 32.598 0 21 0C9.40202 0 0 9.17816 0 20.5C0 31.8218 9.40202 41 21 41ZM27.99 16C27.99 17.66 26.66 19 25 19C23.34 19 22 17.66 22 16C22 14.34 23.34 13 25 13C26.66 13 27.99 14.34 27.99 16ZM19.99 16C19.99 17.66 18.66 19 17 19C15.34 19 14 17.66 14 16C14 14.34 15.34 13 17 13C18.66 13 19.99 14.34 19.99 16ZM10 24.5C10 22.17 14.67 21 17 21C19.33 21 24 22.17 24 24.5V25C24 26.1046 23.1046 27 22 27H12C10.8954 27 10 26.1046 10 25V24.5ZM24.7705 21.6776C24.534 21.4405 24.6651 21 25 21C27.33 21 32 22.17 32 24.5V25C32 26.1046 31.1046 27 30 27H28C26.8954 27 26 26.1046 26 25V24.5C26 23.361 25.5203 22.4293 24.7705 21.6776Z" fill="#A1E887"/>
</svg>
